<svg id="Capa_1" enable-background="new 0 0 512 512" height="512" viewBox="0 0 512 512" width="512" xmlns="http://www.w3.org/2000/svg"><g><path d="m504.5 467h-459.5v-459.5c0-4.143-3.358-7.5-7.5-7.5h-30c-4.142 0-7.5 3.357-7.5 7.5s3.358 7.5 7.5 7.5h22.5v23.916h-7.5c-4.142 0-7.5 3.357-7.5 7.5s3.358 7.5 7.5 7.5h7.5v23.917h-22.5c-4.142 0-7.5 3.357-7.5 7.5s3.358 7.5 7.5 7.5h22.5v23.917h-7.5c-4.142 0-7.5 3.357-7.5 7.5s3.358 7.5 7.5 7.5h7.5v23.916h-22.5c-4.142 0-7.5 3.357-7.5 7.5s3.358 7.5 7.5 7.5h22.5v23.917h-7.5c-4.142 0-7.5 3.357-7.5 7.5s3.358 7.5 7.5 7.5h7.5v23.917h-22.5c-4.142 0-7.5 3.357-7.5 7.5s3.358 7.5 7.5 7.5h22.5v23.916h-7.5c-4.142 0-7.5 3.357-7.5 7.5s3.358 7.5 7.5 7.5h7.5v23.917h-22.5c-4.142 0-7.5 3.357-7.5 7.5s3.358 7.5 7.5 7.5h22.5v23.917h-7.5c-4.142 0-7.5 3.357-7.5 7.5s3.358 7.5 7.5 7.5h7.5v23.916h-22.5c-4.142 0-7.5 3.357-7.5 7.5s3.358 7.5 7.5 7.5h22.5v23.917h-7.5c-4.142 0-7.5 3.357-7.5 7.5s3.358 7.5 7.5 7.5h7.5v23.917h-22.5c-4.142 0-7.5 3.357-7.5 7.5s3.358 7.5 7.5 7.5h22.5v22.5c0 4.143 3.358 7.5 7.5 7.5s7.5-3.357 7.5-7.5v-22.5h23.917v7.5c0 4.143 3.358 7.5 7.5 7.5s7.5-3.357 7.5-7.5v-7.5h23.917v22.5c0 4.143 3.358 7.5 7.5 7.5s7.5-3.357 7.5-7.5v-22.5h23.917v7.5c0 4.143 3.358 7.5 7.5 7.5s7.5-3.357 7.5-7.5v-7.5h23.917v22.5c0 4.143 3.358 7.5 7.5 7.5s7.5-3.357 7.5-7.5v-22.5h23.917v7.5c0 4.143 3.358 7.5 7.5 7.5s7.5-3.357 7.5-7.5v-7.5h23.915v22.5c0 4.143 3.358 7.5 7.5 7.5s7.5-3.357 7.5-7.5v-22.5h23.917v7.5c0 4.143 3.358 7.5 7.5 7.5s7.5-3.357 7.5-7.5v-7.5h23.917v22.5c0 4.143 3.358 7.5 7.5 7.5s7.5-3.357 7.5-7.5v-22.5h23.917v7.5c0 4.143 3.358 7.5 7.5 7.5s7.5-3.357 7.5-7.5v-7.5h23.917v22.5c0 4.143 3.358 7.5 7.5 7.5s7.5-3.357 7.5-7.5v-22.5h23.917v7.5c0 4.143 3.358 7.5 7.5 7.5s7.5-3.357 7.5-7.5v-7.5h23.915v22.5c0 4.143 3.358 7.5 7.5 7.5s7.5-3.357 7.5-7.5v-30c0-4.143-3.358-7.5-7.5-7.5z"/><path d="m504.486 389.164c-105.997 0-157.984-55.556-213.024-114.374-7.884-8.425-15.808-16.891-23.93-25.212 8.497-14.447 16.766-29.17 24.992-43.82 53.753-95.735 104.59-186.288 204.476-190.598l-.014 351.504c0 4.142 3.357 7.5 7.5 7.5s7.5-3.357 7.5-7.5l.014-359.164c0-1.989-.79-3.896-2.197-5.303-1.406-1.407-3.314-2.197-5.303-2.197-113.639 0-170.289 100.873-225.056 198.414-7.625 13.581-15.193 27.056-22.849 40.197-45.881-44.923-99.968-82.945-189.11-82.945-4.142 0-7.5 3.357-7.5 7.5v.084c.011 2.923.015 280.529.015 281.25 0 4.143 3.358 7.5 7.5 7.5h437c1.99 0 3.897-.79 5.304-2.197 1.406-1.407 2.196-3.315 2.196-5.305l-.014-47.836c-.002-4.141-3.359-7.498-7.5-7.498zm-255.743-137.266c-44.15 73.551-92.877 133.584-173.745 137.088l-.009-218.225c81.123 2.055 129.866 37.507 173.754 81.137zm-173.743 185.102-.001-33.003c86.787-3.475 139.56-67.043 184.573-141.098 7.007 7.257 13.948 14.671 20.937 22.14 53.573 57.25 108.928 116.405 216.479 119.034l.01 32.927z"/></g></svg>